# xmcd
#
# Track frame offsets: 
#        187
#        23892
#        43632
#        65260
#        87495
#        112855
#        138652
#        159190
#        179447
#        213110
#        240200
#        258532
#
# Disc length: 3698 seconds
#
# Revision: 2
# Processed by: cddbd v1.5.2PL0 Copyright (c) Steve Scherf et al.
# Submitted via: ExactAudioCopy v1.0b3
#
DISCID=970e700c
DTITLE=Various Artist - Cuon Theo Chieu Gio
DYEAR=2000
DGENRE=VN Vocal
TTITLE0=Huong Lan - Phan Ma ong
TTITLE1=Than Tuyen - Phien Khuc Dom Bong
TTITLE2=Duy Quang - Nguoi Ve Giua Dem Mua
TTITLE3=Son Ca - Ngay Da Dom Bong
TTITLE4=Giao Linh - Phut Cuoi
TTITLE5=Huong Lan - Cuon Theo Chieu Gio
TTITLE6=Phuong Dung - Khoi Lam Chieu
TTITLE7=Thanh Thuy - Sau Nhung Lan Goi Moi
TTITLE8=Giao Linh - Vuon Tao Ngo
TTITLE9=Thanh Tuyen - Gio Nay Anh O Dau
TTITLE10=Huong Lan - Huong Binh Luu Luyen
TTITLE11=Duy Quang - Toi Se Dua Em Ve
EXTD=Distributed by Lang Van 15101 Weststate St, Westminster, CA 92683
EXTT0=
EXTT1=
EXTT2=
EXTT3=
EXTT4=
EXTT5=
EXTT6=
EXTT7=
EXTT8=
EXTT9=
EXTT10=
EXTT11=
PLAYORDER=
